<svg xmlns="http://www.w3.org/2000/svg" xmlns:xlink="http://www.w3.org/1999/xlink" contentStyleType="text/css" data-diagram-type="DESCRIPTION" height="790px" preserveAspectRatio="none" style="width:1557px;height:790px;background:#FFFFFF;" version="1.1" viewBox="0 0 1557 790" width="1557px" zoomAndPan="magnify"><defs/><g><!--cluster Controller Layer--><g class="cluster" data-entity="Controller Layer" data-source-line="1" data-uid="ent0002" id="cluster_Controller Layer"><path d="M891.5,6 L1020.3389,6 A3.75,3.75 0 0 1 1022.8389,8.5 L1029.8389,28.2969 L1074.5,28.2969 A2.5,2.5 0 0 1 1077,30.7969 L1077,100.79 A2.5,2.5 0 0 1 1074.5,103.29 L891.5,103.29 A2.5,2.5 0 0 1 889,100.79 L889,8.5 A2.5,2.5 0 0 1 891.5,6" fill="none" style="stroke:#000000;stroke-width:1.5;"/><line style="stroke:#000000;stroke-width:1.5;" x1="889" x2="1029.8389" y1="28.2969" y2="28.2969"/><text fill="#000000" font-family="sans-serif" font-size="14" font-weight="bold" lengthAdjust="spacing" textLength="127.8389" x="893" y="20.9951">Controller Layer</text></g><!--cluster Service Layer--><g class="cluster" data-entity="Service Layer" data-source-line="5" data-uid="ent0004" id="cluster_Service Layer"><path d="M623.5,298.59 L731.4688,298.59 A3.75,3.75 0 0 1 733.9688,301.09 L740.9688,320.8869 L902.5,320.8869 A2.5,2.5 0 0 1 905,323.3869 L905,507.24 A2.5,2.5 0 0 1 902.5,509.74 L623.5,509.74 A2.5,2.5 0 0 1 621,507.24 L621,301.09 A2.5,2.5 0 0 1 623.5,298.59" fill="none" style="stroke:#000000;stroke-width:1.5;"/><line style="stroke:#000000;stroke-width:1.5;" x1="621" x2="740.9688" y1="320.8869" y2="320.8869"/><text fill="#000000" font-family="sans-serif" font-size="14" font-weight="bold" lengthAdjust="spacing" textLength="106.9688" x="625" y="313.5851">Service Layer</text></g><!--cluster Client Layer--><g class="cluster" data-entity="Client Layer" data-source-line="11" data-uid="ent0008" id="cluster_Client Layer"><path d="M637.5,152.29 L733.2939,152.29 A3.75,3.75 0 0 1 735.7939,154.79 L742.7939,174.5869 L834.5,174.5869 A2.5,2.5 0 0 1 837,177.0869 L837,247.09 A2.5,2.5 0 0 1 834.5,249.59 L637.5,249.59 A2.5,2.5 0 0 1 635,247.09 L635,154.79 A2.5,2.5 0 0 1 637.5,152.29" fill="none" style="stroke:#000000;stroke-width:1.5;"/><line style="stroke:#000000;stroke-width:1.5;" x1="635" x2="742.7939" y1="174.5869" y2="174.5869"/><text fill="#000000" font-family="sans-serif" font-size="14" font-weight="bold" lengthAdjust="spacing" textLength="94.7939" x="639" y="167.2851">Client Layer</text></g><!--cluster Configuration--><g class="cluster" data-entity="Configuration" data-source-line="15" data-uid="ent0010" id="cluster_Configuration"><path d="M45.5,561.29 L154.665,561.29 A3.75,3.75 0 0 1 157.165,563.79 L164.165,583.5869 L453.5,583.5869 A2.5,2.5 0 0 1 456,586.0869 L456,781.38 A2.5,2.5 0 0 1 453.5,783.88 L45.5,783.88 A2.5,2.5 0 0 1 43,781.38 L43,563.79 A2.5,2.5 0 0 1 45.5,561.29" fill="none" style="stroke:#000000;stroke-width:1.5;"/><line style="stroke:#000000;stroke-width:1.5;" x1="43" x2="164.165" y1="583.5869" y2="583.5869"/><text fill="#000000" font-family="sans-serif" font-size="14" font-weight="bold" lengthAdjust="spacing" textLength="108.165" x="47" y="576.2851">Configuration</text></g><!--cluster DTOs--><g class="cluster" data-entity="DTOs" data-source-line="21" data-uid="ent0014" id="cluster_DTOs"><path d="M807.5,561.29 L849.9053,561.29 A3.75,3.75 0 0 1 852.4053,563.79 L859.4053,583.5869 L1547.5,583.5869 A2.5,2.5 0 0 1 1550,586.0869 L1550,656.08 A2.5,2.5 0 0 1 1547.5,658.58 L807.5,658.58 A2.5,2.5 0 0 1 805,656.08 L805,563.79 A2.5,2.5 0 0 1 807.5,561.29" fill="none" style="stroke:#000000;stroke-width:1.5;"/><line style="stroke:#000000;stroke-width:1.5;" x1="805" x2="859.4053" y1="583.5869" y2="583.5869"/><text fill="#000000" font-family="sans-serif" font-size="14" font-weight="bold" lengthAdjust="spacing" textLength="41.4053" x="809" y="576.2851">DTOs</text></g><!--cluster Exception--><g class="cluster" data-entity="Exception" data-source-line="28" data-uid="ent0019" id="cluster_Exception"><path d="M599.5,561.29 L677.9854,561.29 A3.75,3.75 0 0 1 680.4854,563.79 L687.4854,583.5869 L778.5,583.5869 A2.5,2.5 0 0 1 781,586.0869 L781,656.08 A2.5,2.5 0 0 1 778.5,658.58 L599.5,658.58 A2.5,2.5 0 0 1 597,656.08 L597,563.79 A2.5,2.5 0 0 1 599.5,561.29" fill="none" style="stroke:#000000;stroke-width:1.5;"/><line style="stroke:#000000;stroke-width:1.5;" x1="597" x2="687.4854" y1="583.5869" y2="583.5869"/><text fill="#000000" font-family="sans-serif" font-size="14" font-weight="bold" lengthAdjust="spacing" textLength="77.4854" x="601" y="576.2851">Exception</text></g><!--cluster External--><g class="cluster" data-entity="External" data-source-line="32" data-uid="ent0021" id="cluster_External"><path d="M389.5,298.59 L456.3984,298.59 A3.75,3.75 0 0 1 458.8984,301.09 L465.8984,320.8869 L594.5,320.8869 A2.5,2.5 0 0 1 597,323.3869 L597,393.39 A2.5,2.5 0 0 1 594.5,395.89 L389.5,395.89 A2.5,2.5 0 0 1 387,393.39 L387,301.09 A2.5,2.5 0 0 1 389.5,298.59" fill="none" style="stroke:#000000;stroke-width:1.5;"/><line style="stroke:#000000;stroke-width:1.5;" x1="387" x2="465.8984" y1="320.8869" y2="320.8869"/><text fill="#000000" font-family="sans-serif" font-size="14" font-weight="bold" lengthAdjust="spacing" textLength="65.8984" x="391" y="313.5851">External</text></g><!--entity Controller--><g class="entity" data-entity="Controller" data-source-line="2" data-uid="ent0003" id="entity_Controller"><rect fill="#F1F1F1" height="46.2969" rx="2.5" ry="2.5" style="stroke:#181818;stroke-width:0.5;" width="155.8486" x="905.08" y="41"/><rect fill="#F1F1F1" height="10" style="stroke:#181818;stroke-width:0.5;" width="15" x="1040.9286" y="46"/><rect fill="#F1F1F1" height="2" style="stroke:#181818;stroke-width:0.5;" width="4" x="1038.9286" y="48"/><rect fill="#F1F1F1" height="2" style="stroke:#181818;stroke-width:0.5;" width="4" x="1038.9286" y="52"/><text fill="#000000" font-family="sans-serif" font-size="14" lengthAdjust="spacing" textLength="115.8486" x="920.08" y="73.9951">TeamsController</text></g><!--entity TokenMgrIntf--><g class="entity" data-entity="TokenMgrIntf" data-source-line="6" data-uid="ent0005" id="entity_TokenMgrIntf"><rect fill="#F1F1F1" height="46.2969" rx="2.5" ry="2.5" style="stroke:#181818;stroke-width:0.5;" width="144.0771" x="690.96" y="333.59"/><rect fill="#F1F1F1" height="10" style="stroke:#181818;stroke-width:0.5;" width="15" x="815.0371" y="338.59"/><rect fill="#F1F1F1" height="2" style="stroke:#181818;stroke-width:0.5;" width="4" x="813.0371" y="340.59"/><rect fill="#F1F1F1" height="2" style="stroke:#181818;stroke-width:0.5;" width="4" x="813.0371" y="344.59"/><text fill="#000000" font-family="sans-serif" font-size="14" lengthAdjust="spacing" textLength="104.0771" x="705.96" y="366.5851">TokenManager</text></g><!--entity TokenMgrImpl--><g class="entity" data-entity="TokenMgrImpl" data-source-line="7" data-uid="ent0006" id="entity_TokenMgrImpl"><rect fill="#F1F1F1" height="46.2969" rx="2.5" ry="2.5" style="stroke:#181818;stroke-width:0.5;" width="251.2852" x="637.36" y="447.44"/><rect fill="#F1F1F1" height="10" style="stroke:#181818;stroke-width:0.5;" width="15" x="868.6452" y="452.44"/><rect fill="#F1F1F1" height="2" style="stroke:#181818;stroke-width:0.5;" width="4" x="866.6452" y="454.44"/><rect fill="#F1F1F1" height="2" style="stroke:#181818;stroke-width:0.5;" width="4" x="866.6452" y="458.44"/><text fill="#000000" font-family="sans-serif" font-size="14" lengthAdjust="spacing" textLength="211.2852" x="652.36" y="480.4351">MicrosoftGraphTokenManager</text></g><!--entity GraphClient--><g class="entity" data-entity="GraphClient" data-source-line="12" data-uid="ent0009" id="entity_GraphClient"><rect fill="#F1F1F1" height="46.2969" rx="2.5" ry="2.5" style="stroke:#181818;stroke-width:0.5;" width="170.1494" x="650.93" y="187.29"/><rect fill="#F1F1F1" height="10" style="stroke:#181818;stroke-width:0.5;" width="15" x="801.0794" y="192.29"/><rect fill="#F1F1F1" height="2" style="stroke:#181818;stroke-width:0.5;" width="4" x="799.0794" y="194.29"/><rect fill="#F1F1F1" height="2" style="stroke:#181818;stroke-width:0.5;" width="4" x="799.0794" y="198.29"/><text fill="#000000" font-family="sans-serif" font-size="14" lengthAdjust="spacing" textLength="130.1494" x="665.93" y="220.2851">TeamsGraphClient</text></g><!--entity Props--><g class="entity" data-entity="Props" data-source-line="16" data-uid="ent0011" id="entity_Props"><rect fill="#F1F1F1" height="46.2969" rx="2.5" ry="2.5" style="stroke:#181818;stroke-width:0.5;" width="154.249" x="58.88" y="596.29"/><rect fill="#F1F1F1" height="10" style="stroke:#181818;stroke-width:0.5;" width="15" x="193.129" y="601.29"/><rect fill="#F1F1F1" height="2" style="stroke:#181818;stroke-width:0.5;" width="4" x="191.129" y="603.29"/><rect fill="#F1F1F1" height="2" style="stroke:#181818;stroke-width:0.5;" width="4" x="191.129" y="607.29"/><text fill="#000000" font-family="sans-serif" font-size="14" lengthAdjust="spacing" textLength="114.249" x="73.88" y="629.2851">GraphProperties</text></g><!--entity Config--><g class="entity" data-entity="Config" data-source-line="17" data-uid="ent0012" id="entity_Config"><rect fill="#F1F1F1" height="46.2969" rx="2.5" ry="2.5" style="stroke:#181818;stroke-width:0.5;" width="192.127" x="247.94" y="596.29"/><rect fill="#F1F1F1" height="10" style="stroke:#181818;stroke-width:0.5;" width="15" x="420.067" y="601.29"/><rect fill="#F1F1F1" height="2" style="stroke:#181818;stroke-width:0.5;" width="4" x="418.067" y="603.29"/><rect fill="#F1F1F1" height="2" style="stroke:#181818;stroke-width:0.5;" width="4" x="418.067" y="607.29"/><text fill="#000000" font-family="sans-serif" font-size="14" lengthAdjust="spacing" textLength="152.127" x="262.94" y="629.2851">MicrosoftGraphConfig</text></g><!--entity RestTemplate--><g class="entity" data-entity="RestTemplate" data-source-line="18" data-uid="ent0013" id="entity_RestTemplate"><rect fill="#F1F1F1" height="46.2969" rx="2.5" ry="2.5" style="stroke:#181818;stroke-width:0.5;" width="137.3848" x="275.31" y="721.58"/><rect fill="#F1F1F1" height="10" style="stroke:#181818;stroke-width:0.5;" width="15" x="392.6948" y="726.58"/><rect fill="#F1F1F1" height="2" style="stroke:#181818;stroke-width:0.5;" width="4" x="390.6948" y="728.58"/><rect fill="#F1F1F1" height="2" style="stroke:#181818;stroke-width:0.5;" width="4" x="390.6948" y="732.58"/><text fill="#000000" font-family="sans-serif" font-size="14" lengthAdjust="spacing" textLength="97.3848" x="290.31" y="754.5751">RestTemplate</text></g><!--entity MsgReq--><g class="entity" data-entity="MsgReq" data-source-line="22" data-uid="ent0015" id="entity_MsgReq"><rect fill="#F1F1F1" height="46.2969" rx="2.5" ry="2.5" style="stroke:#181818;stroke-width:0.5;" width="158.8564" x="1006.57" y="596.29"/><rect fill="#F1F1F1" height="10" style="stroke:#181818;stroke-width:0.5;" width="15" x="1145.4264" y="601.29"/><rect fill="#F1F1F1" height="2" style="stroke:#181818;stroke-width:0.5;" width="4" x="1143.4264" y="603.29"/><rect fill="#F1F1F1" height="2" style="stroke:#181818;stroke-width:0.5;" width="4" x="1143.4264" y="607.29"/><text fill="#000000" font-family="sans-serif" font-size="14" lengthAdjust="spacing" textLength="118.8564" x="1021.57" y="629.2851">MessageRequest</text></g><!--entity SetTokenReq--><g class="entity" data-entity="SetTokenReq" data-source-line="23" data-uid="ent0016" id="entity_SetTokenReq"><rect fill="#F1F1F1" height="46.2969" rx="2.5" ry="2.5" style="stroke:#181818;stroke-width:0.5;" width="170.4912" x="1200.75" y="596.29"/><rect fill="#F1F1F1" height="10" style="stroke:#181818;stroke-width:0.5;" width="15" x="1351.2412" y="601.29"/><rect fill="#F1F1F1" height="2" style="stroke:#181818;stroke-width:0.5;" width="4" x="1349.2412" y="603.29"/><rect fill="#F1F1F1" height="2" style="stroke:#181818;stroke-width:0.5;" width="4" x="1349.2412" y="607.29"/><text fill="#000000" font-family="sans-serif" font-size="14" lengthAdjust="spacing" textLength="130.4912" x="1215.75" y="629.2851">SetTokensRequest</text></g><!--entity TokenResp--><g class="entity" data-entity="TokenResp" data-source-line="24" data-uid="ent0017" id="entity_TokenResp"><rect fill="#F1F1F1" height="46.2969" rx="2.5" ry="2.5" style="stroke:#181818;stroke-width:0.5;" width="150.5781" x="820.71" y="596.29"/><rect fill="#F1F1F1" height="10" style="stroke:#181818;stroke-width:0.5;" width="15" x="951.2881" y="601.29"/><rect fill="#F1F1F1" height="2" style="stroke:#181818;stroke-width:0.5;" width="4" x="949.2881" y="603.29"/><rect fill="#F1F1F1" height="2" style="stroke:#181818;stroke-width:0.5;" width="4" x="949.2881" y="607.29"/><text fill="#000000" font-family="sans-serif" font-size="14" lengthAdjust="spacing" textLength="110.5781" x="835.71" y="629.2851">TokenResponse</text></g><!--entity TokenSts--><g class="entity" data-entity="TokenSts" data-source-line="25" data-uid="ent0018" id="entity_TokenSts"><rect fill="#F1F1F1" height="46.2969" rx="2.5" ry="2.5" style="stroke:#181818;stroke-width:0.5;" width="127.3223" x="1406.34" y="596.29"/><rect fill="#F1F1F1" height="10" style="stroke:#181818;stroke-width:0.5;" width="15" x="1513.6623" y="601.29"/><rect fill="#F1F1F1" height="2" style="stroke:#181818;stroke-width:0.5;" width="4" x="1511.6623" y="603.29"/><rect fill="#F1F1F1" height="2" style="stroke:#181818;stroke-width:0.5;" width="4" x="1511.6623" y="607.29"/><text fill="#000000" font-family="sans-serif" font-size="14" lengthAdjust="spacing" textLength="87.3223" x="1421.34" y="629.2851">TokenStatus</text></g><!--entity TokenEx--><g class="entity" data-entity="TokenEx" data-source-line="29" data-uid="ent0020" id="entity_TokenEx"><rect fill="#F1F1F1" height="46.2969" rx="2.5" ry="2.5" style="stroke:#181818;stroke-width:0.5;" width="151.8564" x="613.07" y="596.29"/><rect fill="#F1F1F1" height="10" style="stroke:#181818;stroke-width:0.5;" width="15" x="744.9264" y="601.29"/><rect fill="#F1F1F1" height="2" style="stroke:#181818;stroke-width:0.5;" width="4" x="742.9264" y="603.29"/><rect fill="#F1F1F1" height="2" style="stroke:#181818;stroke-width:0.5;" width="4" x="742.9264" y="607.29"/><text fill="#000000" font-family="sans-serif" font-size="14" lengthAdjust="spacing" textLength="111.8564" x="628.07" y="629.2851">TokenException</text></g><!--entity GraphAPI--><g class="entity" data-entity="GraphAPI" data-source-line="33" data-uid="ent0022" id="entity_GraphAPI"><rect fill="#F1F1F1" height="46.2969" rx="2.5" ry="2.5" style="stroke:#181818;stroke-width:0.5;" width="178.2568" x="402.87" y="333.59"/><rect fill="#F1F1F1" height="10" style="stroke:#181818;stroke-width:0.5;" width="15" x="561.1268" y="338.59"/><rect fill="#F1F1F1" height="2" style="stroke:#181818;stroke-width:0.5;" width="4" x="559.1268" y="340.59"/><rect fill="#F1F1F1" height="2" style="stroke:#181818;stroke-width:0.5;" width="4" x="559.1268" y="344.59"/><text fill="#000000" font-family="sans-serif" font-size="14" lengthAdjust="spacing" textLength="138.2568" x="417.87" y="366.5851">Microsoft Graph API</text></g><g class="entity" data-entity="GMN36" data-source-line="55" data-uid="ent0037" id="entity_GMN36"><path d="M1303.42,442.89 L1303.42,466.59 L888.88,470.59 L1303.42,474.59 L1303.42,498.2884 A0,0 0 0 0 1303.42,498.2884 L1524.5743,498.2884 A0,0 0 0 0 1524.5743,498.2884 L1524.5743,452.89 L1514.5743,442.89 L1303.42,442.89 A0,0 0 0 0 1303.42,442.89" fill="#FEFFDD" style="stroke:#181818;stroke-width:0.5;"/><path d="M1514.5743,442.89 L1514.5743,452.89 L1524.5743,452.89 L1514.5743,442.89" fill="#FEFFDD" style="stroke:#181818;stroke-width:0.5;"/><text fill="#000000" font-family="sans-serif" font-size="13" lengthAdjust="spacing" textLength="200.1543" x="1309.42" y="459.9569">Thread-safe v&#7899;i ReentrantLock</text><text fill="#000000" font-family="sans-serif" font-size="13" lengthAdjust="spacing" textLength="171.8564" x="1309.42" y="475.0897">UTC timezone consistency</text><text fill="#000000" font-family="sans-serif" font-size="13" lengthAdjust="spacing" textLength="158.0249" x="1309.42" y="490.2225">Automatic token refresh</text></g><g class="entity" data-entity="GMN39" data-source-line="61" data-uid="ent0040" id="entity_GMN39"><path d="M1302.92,190.31 L1302.92,230.5756 L1507.0753,230.5756 L1507.0753,200.31 L1497.0753,190.31 L1302.92,190.31" fill="#FEFFDD" style="stroke:#181818;stroke-width:0.5;"/><path d="M1497.0753,190.31 L1497.0753,200.31 L1507.0753,200.31 L1497.0753,190.31" fill="#FEFFDD" style="stroke:#181818;stroke-width:1;"/><text fill="#000000" font-family="sans-serif" font-size="13" lengthAdjust="spacing" textLength="155.9175" x="1308.92" y="207.3769">G&#7917;i tin nh&#7855;n &#273;&#7871;n Teams</text><text fill="#000000" font-family="sans-serif" font-size="13" lengthAdjust="spacing" textLength="183.1553" x="1308.92" y="222.5097">Bearer token authentication</text></g><!--reverse link TokenMgrIntf to TokenMgrImpl--><g class="link" data-entity-1="TokenMgrIntf" data-entity-2="TokenMgrImpl" data-source-line="8" data-uid="lnk7" id="link_TokenMgrIntf_TokenMgrImpl"><path d="M763,398.37 C763,417.78 763,427.59 763,446.99" fill="none" id="TokenMgrIntf-backto-TokenMgrImpl" style="stroke:#181818;stroke-width:1;"/><polygon fill="none" points="763,380.37,757,398.37,769,398.37,763,380.37" style="stroke:#181818;stroke-width:1;"/></g><!--link Controller to TokenMgrIntf--><g class="link" data-entity-1="Controller" data-entity-2="TokenMgrIntf" data-source-line="37" data-uid="lnk23" id="link_Controller_TokenMgrIntf"><path d="M964.21,87.57 C952.1,102.83 936.68,123.89 926,144.29 C895.75,202.06 917.52,231.5 877,282.59 C860.05,303.97 840.3201,318.1037 818.0501,330.3237" fill="none" id="Controller-to-TokenMgrIntf" style="stroke:#181818;stroke-width:1;"/><polygon fill="#181818" points="812.79,333.21,822.6044,332.3872,817.1734,330.8047,818.756,325.3737,812.79,333.21" style="stroke:#181818;stroke-width:1;"/><text fill="#000000" font-family="sans-serif" font-size="13" lengthAdjust="spacing" textLength="29.7832" x="927" y="215.0069">uses</text></g><!--link Controller to GraphClient--><g class="link" data-entity-1="Controller" data-entity-2="GraphClient" data-source-line="38" data-uid="lnk24" id="link_Controller_GraphClient"><path d="M910.17,87.77 C887.57,96.18 863.08,106.78 842,119.29 C810.01,138.28 782.4346,162.8498 762.1246,182.7598" fill="none" id="Controller-to-GraphClient" style="stroke:#181818;stroke-width:1;"/><polygon fill="#181818" points="757.84,186.96,767.0671,183.5161,761.4105,183.4598,761.4668,177.8032,757.84,186.96" style="stroke:#181818;stroke-width:1;"/><text fill="#000000" font-family="sans-serif" font-size="13" lengthAdjust="spacing" textLength="29.7832" x="843" y="132.3569">uses</text></g><!--link Controller to MsgReq--><g class="link" data-entity-1="Controller" data-entity-2="MsgReq" data-source-line="39" data-uid="lnk25" id="link_Controller_MsgReq"><path d="M983,87.64 C983,116.03 983,166.35 983,209.44 C983,209.44 983,209.44 983,471.59 C983,523.28 1021.7641,565.7641 1052.2141,591.9941" fill="none" id="Controller-to-MsgReq" style="stroke:#181818;stroke-width:1;"/><polygon fill="#181818" points="1056.76,595.91,1052.5517,587.0055,1052.9717,592.6467,1047.3305,593.0667,1056.76,595.91" style="stroke:#181818;stroke-width:1;"/><text fill="#000000" font-family="sans-serif" font-size="13" lengthAdjust="spacing" textLength="58.9697" x="984" y="361.3069">validates</text></g><!--link Controller to SetTokenReq--><g class="link" data-entity-1="Controller" data-entity-2="SetTokenReq" data-source-line="40" data-uid="lnk26" id="link_Controller_SetTokenReq"><path d="M1023.42,87.58 C1061.58,112.08 1113,155.16 1113,209.44 C1113,209.44 1113,209.44 1113,471.59 C1113,506.75 1192.0124,561.1055 1242.9324,592.7155" fill="none" id="Controller-to-SetTokenReq" style="stroke:#181818;stroke-width:1;"/><polygon fill="#181818" points="1248.03,595.88,1242.4932,587.7348,1243.782,593.2429,1238.2739,594.5317,1248.03,595.88" style="stroke:#181818;stroke-width:1;"/><text fill="#000000" font-family="sans-serif" font-size="13" lengthAdjust="spacing" textLength="65.0127" x="1114" y="361.3069">processes</text></g><!--link Controller to TokenSts--><g class="link" data-entity-1="Controller" data-entity-2="TokenSts" data-source-line="41" data-uid="lnk27" id="link_Controller_TokenSts"><path d="M1061.3,74.11 C1140.09,88.01 1250,122.9 1250,209.44 C1250,209.44 1250,209.44 1250,471.59 C1250,543.25 1326.28,518.63 1389,553.29 C1410.01,564.9 1426.5826,578.0247 1441.9526,591.8047" fill="none" id="Controller-to-TokenSts" style="stroke:#181818;stroke-width:1;"/><polygon fill="#181818" points="1446.42,595.81,1442.3891,586.8238,1442.6972,592.4723,1437.0487,592.7804,1446.42,595.81" style="stroke:#181818;stroke-width:1;"/><text fill="#000000" font-family="sans-serif" font-size="13" lengthAdjust="spacing" textLength="47.0361" x="1251" y="361.3069">returns</text></g><!--link GraphClient to TokenMgrIntf--><g class="link" data-entity-1="GraphClient" data-entity-2="TokenMgrIntf" data-source-line="43" data-uid="lnk28" id="link_GraphClient_TokenMgrIntf"><path d="M732.35,234.08 C730.74,248.16 729.84,266.58 733,282.59 C736.5,300.37 741.7681,313.8535 748.5681,327.9835" fill="none" id="GraphClient-to-TokenMgrIntf" style="stroke:#181818;stroke-width:1;"/><polygon fill="#181818" points="751.17,333.39,750.8716,323.5457,749.0018,328.8846,743.6629,327.0148,751.17,333.39" style="stroke:#181818;stroke-width:1;"/><text fill="#000000" font-family="sans-serif" font-size="13" lengthAdjust="spacing" textLength="138.3345" x="734" y="278.6569">getDelegatedToken()</text></g><!--link GraphClient to GraphAPI--><g class="link" data-entity-1="GraphClient" data-entity-2="GraphAPI" data-source-line="44" data-uid="lnk29" id="link_GraphClient_GraphAPI"><path d="M697.88,233.99 C652.17,261.02 581.1846,302.996 535.4246,330.056" fill="none" id="GraphClient-to-GraphAPI" style="stroke:#181818;stroke-width:1;"/><polygon fill="#181818" points="530.26,333.11,540.0429,331.972,534.5638,330.565,535.9708,325.0859,530.26,333.11" style="stroke:#181818;stroke-width:1;"/><text fill="#000000" font-family="sans-serif" font-size="13" lengthAdjust="spacing" textLength="66.7393" x="644" y="278.6569">HTTP calls</text></g><!--link GraphClient to RestTemplate--><g class="link" data-entity-1="GraphClient" data-entity-2="RestTemplate" data-source-line="45" data-uid="lnk30" id="link_GraphClient_RestTemplate"><path d="M650.47,210.58 C457.7,210.94 6,225.66 6,355.74 C6,355.74 6,355.74 6,620.43 C6,646.18 19.55,652.36 41,666.58 C112.02,713.69 203.9259,731.3748 269.0059,738.5248" fill="none" id="GraphClient-to-RestTemplate" style="stroke:#181818;stroke-width:1;"/><polygon fill="#181818" points="274.97,739.18,266.4607,734.2211,269.9999,738.634,265.587,742.1732,274.97,739.18" style="stroke:#181818;stroke-width:1;"/><text fill="#000000" font-family="sans-serif" font-size="13" lengthAdjust="spacing" textLength="29.7832" x="7" y="475.1569">uses</text></g><!--link TokenMgrImpl to Props--><g class="link" data-entity-1="TokenMgrImpl" data-entity-2="Props" data-source-line="47" data-uid="lnk31" id="link_TokenMgrImpl_Props"><path d="M637.12,474.94 C526.38,481.57 362.63,500.45 230,553.29 C204.73,563.35 184.2407,577.5214 166.3307,592.0414" fill="none" id="TokenMgrImpl-to-Props" style="stroke:#181818;stroke-width:1;"/><polygon fill="#181818" points="161.67,595.82,171.1801,593.2593,165.554,592.6712,166.1421,587.045,161.67,595.82" style="stroke:#181818;stroke-width:1;"/><text fill="#000000" font-family="sans-serif" font-size="13" lengthAdjust="spacing" textLength="86.2329" x="300" y="541.3569">configuration</text></g><!--link TokenMgrImpl to RestTemplate--><g class="link" data-entity-1="TokenMgrImpl" data-entity-2="RestTemplate" data-source-line="48" data-uid="lnk32" id="link_TokenMgrImpl_RestTemplate"><path d="M650.77,494.18 C609.38,506.57 564.06,525.31 529,553.29 C482.55,590.35 499.27,623.83 458,666.58 C437,688.33 414.0713,704.3436 391.0313,718.1036" fill="none" id="TokenMgrImpl-to-RestTemplate" style="stroke:#181818;stroke-width:1;"/><polygon fill="#181818" points="385.88,721.18,395.6579,719.9995,390.1727,718.6163,391.5559,713.1312,385.88,721.18" style="stroke:#181818;stroke-width:1;"/><text fill="#000000" font-family="sans-serif" font-size="13" lengthAdjust="spacing" textLength="66.7393" x="530" y="623.9969">HTTP calls</text></g><!--link TokenMgrImpl to TokenResp--><g class="link" data-entity-1="TokenMgrImpl" data-entity-2="TokenResp" data-source-line="49" data-uid="lnk33" id="link_TokenMgrImpl_TokenResp"><path d="M783.49,494.21 C808.56,521.89 846.7022,564.0029 871.6822,591.5829" fill="none" id="TokenMgrImpl-to-TokenResp" style="stroke:#181818;stroke-width:1;"/><polygon fill="#181818" points="875.71,596.03,872.633,586.6742,872.3535,592.3241,866.7035,592.0446,875.71,596.03" style="stroke:#181818;stroke-width:1;"/><text fill="#000000" font-family="sans-serif" font-size="13" lengthAdjust="spacing" textLength="65.0127" x="830" y="541.3569">processes</text></g><!--link TokenMgrImpl to TokenEx--><g class="link" data-entity-1="TokenMgrImpl" data-entity-2="TokenEx" data-source-line="50" data-uid="lnk34" id="link_TokenMgrImpl_TokenEx"><path d="M751.6,494.21 C737.65,521.89 716.8904,563.092 702.9904,590.672" fill="none" id="TokenMgrImpl-to-TokenEx" style="stroke:#181818;stroke-width:1;"/><polygon fill="#181818" points="700.29,596.03,707.9125,589.7933,702.5403,591.565,700.7686,586.1928,700.29,596.03" style="stroke:#181818;stroke-width:1;"/><text fill="#000000" font-family="sans-serif" font-size="13" lengthAdjust="spacing" textLength="44.04" x="733" y="541.3569">throws</text></g><!--link Config to RestTemplate--><g class="link" data-entity-1="Config" data-entity-2="RestTemplate" data-source-line="52" data-uid="lnk35" id="link_Config_RestTemplate"><path d="M344,643.05 C344,665.3 344,693.06 344,715.26" fill="none" id="Config-to-RestTemplate" style="stroke:#181818;stroke-width:1;"/><polygon fill="#181818" points="344,721.26,348,712.26,344,716.26,340,712.26,344,721.26" style="stroke:#181818;stroke-width:1;"/><text fill="#000000" font-family="sans-serif" font-size="13" lengthAdjust="spacing" textLength="48.3247" x="345" y="687.6469">creates</text></g><!--link GraphClient to GMN39--><g class="link" data-entity-1="GraphClient" data-entity-2="GMN39" data-source-line="61" data-uid="lnk41" id="link_GraphClient_GMN39"><path d="M764.66,186.8 C791.07,166.66 832.3,139.22 873.5,127.79 C1048.3,79.3 1263.84,151.99 1357.66,189.87" fill="none" id="GraphClient-GMN39" style="stroke:#181818;stroke-width:1;stroke-dasharray:7.0,7.0;"/></g><!--SRC=[VPHBRjim48RtEWMHJTg5Bb041LB7I0F4g16hgw8BWXv9X2LIvOnSfuz3TDqp5DqdYsvw4T-a8wgAg8VZbOVyvfydLKcranc8iuKrv6nHW1EtyXxScVWQ2VufMrRMW27n8G5POizz5195RqRVewZgr3RWzbh1QIcx0xEIXk5Mfpt8t8sXT0olj78MRKhNJbRvQTUoAhnhg2KkliNn40dpN1Iw2V5inJvg2_fuWJtKiYRLMUqaQMjcnBpVsjaA76b0hzMO-7ozhMpNRFuxnky0AG6kJ19uB3mOP7YLlCEPn5Q0oFTtyAbcJo-nmepDCRW1yft44EqEP_Z_vyWsGZ-hvcGMtP2a6djmGpZ8VtbGK9tehdTu0dgDvM4aGU2CBERQqBMzdR2uND_qysQZqJddvXP-m9XhdbpmQkBuzN3pNeaQOO84stE2Q7lFbtjPw2tFS484BMUiSbRn164-6-uXCmweTWQZA0m_at46T0K5P1nrwwzUl9ouTFrW_6sIh8MIHO4JAbp2hj0eV8UUyllFrofyErDi91Q4dQ1F6pRep3osF314kREVERVsSSs5Kmxy529ZsNOwoqdOTFpTINB6jZ7A5CJ- -FXJimmtmqb3jrRjc7YVB0Jf4hxmmZKLeqO2e-xvwh8cMtBnIb2ZolDA7M0UWTcA9keuTlWD4kBw-FXBixGH9Zy-_3RYxu_ZmnyZ_EUBxz-0TBmJhRIiAMSthTfUTn7-0G00]--></g></svg>