<svg xmlns="http://www.w3.org/2000/svg" xmlns:xlink="http://www.w3.org/1999/xlink" contentStyleType="text/css" data-diagram-type="CLASS" height="967px" preserveAspectRatio="none" style="width:706px;height:967px;background:#FFFFFF;" version="1.1" viewBox="0 0 706 967" width="706px" zoomAndPan="magnify"><defs/><g><!--cluster Spring Configuration--><g class="cluster" data-entity="Spring Configuration" data-source-line="1" data-uid="ent0002" id="cluster_Spring Configuration"><path d="M8.5,268.08 L174.335,268.08 A3.75,3.75 0 0 1 176.835,270.58 L183.835,290.3769 L634.5,290.3769 A2.5,2.5 0 0 1 637,292.8769 L637,494.95 A2.5,2.5 0 0 1 634.5,497.45 L8.5,497.45 A2.5,2.5 0 0 1 6,494.95 L6,270.58 A2.5,2.5 0 0 1 8.5,268.08" fill="none" style="stroke:#000000;stroke-width:1.5;"/><line style="stroke:#000000;stroke-width:1.5;" x1="6" x2="183.835" y1="290.3769" y2="290.3769"/><text fill="#000000" font-family="sans-serif" font-size="14" font-weight="bold" lengthAdjust="spacing" textLength="164.835" x="10" y="283.0751">Spring Configuration</text></g><!--cluster Spring Components--><g class="cluster" data-entity="Spring Components" data-source-line="18" data-uid="ent0005" id="cluster_Spring Components"><path d="M69.5,671.45 L225.7441,671.45 A3.75,3.75 0 0 1 228.2441,673.95 L235.2441,693.7469 L577.5,693.7469 A2.5,2.5 0 0 1 580,696.2469 L580,958.14 A2.5,2.5 0 0 1 577.5,960.64 L69.5,960.64 A2.5,2.5 0 0 1 67,958.14 L67,673.95 A2.5,2.5 0 0 1 69.5,671.45" fill="none" style="stroke:#000000;stroke-width:1.5;"/><line style="stroke:#000000;stroke-width:1.5;" x1="67" x2="235.2441" y1="693.7469" y2="693.7469"/><text fill="#000000" font-family="sans-serif" font-size="14" font-weight="bold" lengthAdjust="spacing" textLength="155.2441" x="71" y="686.4451">Spring Components</text></g><!--cluster External Configuration--><g class="cluster" data-entity="External Configuration" data-source-line="35" data-uid="ent0009" id="cluster_External Configuration"><path d="M217.5,6 L397.4375,6 A3.75,3.75 0 0 1 399.9375,8.5 L406.9375,28.2969 L696.5,28.2969 A2.5,2.5 0 0 1 699,30.7969 L699,216.58 A2.5,2.5 0 0 1 696.5,219.08 L217.5,219.08 A2.5,2.5 0 0 1 215,216.58 L215,8.5 A2.5,2.5 0 0 1 217.5,6" fill="none" style="stroke:#000000;stroke-width:1.5;"/><line style="stroke:#000000;stroke-width:1.5;" x1="215" x2="406.9375" y1="28.2969" y2="28.2969"/><text fill="#000000" font-family="sans-serif" font-size="14" font-weight="bold" lengthAdjust="spacing" textLength="178.9375" x="219" y="20.9951">External Configuration</text></g><!--class MicrosoftGraphConfig--><g class="entity" data-entity="MicrosoftGraphConfig" data-source-line="2" data-uid="ent0003" id="entity_MicrosoftGraphConfig"><rect fill="#F1F1F1" height="64.2969" rx="2.5" ry="2.5" style="stroke:#181818;stroke-width:0.5;" width="236.8887" x="21.56" y="360.12"/><ellipse cx="60.3028" cy="376.12" fill="#ADD1B2" rx="11" ry="11" style="stroke:#181818;stroke-width:1;"/><path d="M63.2715,381.7606 Q62.6934,382.0575 62.0528,382.1981 Q61.4121,382.3544 60.709,382.3544 Q58.209,382.3544 56.8809,380.7138 Q55.5684,379.0575 55.5684,375.9325 Q55.5684,372.8075 56.8809,371.1513 Q58.209,369.495 60.709,369.495 Q61.4121,369.495 62.0528,369.6513 Q62.709,369.8075 63.2715,370.1044 L63.2715,372.8231 Q62.6465,372.245 62.0528,371.9794 Q61.459,371.6981 60.834,371.6981 Q59.4903,371.6981 58.8028,372.7763 Q58.1153,373.8388 58.1153,375.9325 Q58.1153,378.0263 58.8028,379.1044 Q59.4903,380.1669 60.834,380.1669 Q61.459,380.1669 62.0528,379.9013 Q62.6465,379.62 63.2715,379.0419 L63.2715,381.7606 Z " fill="#000000"/><text fill="#000000" font-family="sans-serif" font-size="14" lengthAdjust="spacing" textLength="152.127" x="79.5789" y="380.9667">MicrosoftGraphConfig</text><line style="stroke:#181818;stroke-width:0.5;" x1="22.56" x2="257.4487" y1="392.12" y2="392.12"/><line style="stroke:#181818;stroke-width:0.5;" x1="22.56" x2="257.4487" y1="400.12" y2="400.12"/><ellipse cx="32.56" cy="413.7684" fill="#84BE84" rx="3" ry="3" style="stroke:#038048;stroke-width:1;"/><text fill="#000000" font-family="sans-serif" font-size="14" lengthAdjust="spacing" textLength="210.8887" x="41.56" y="417.1151">restTemplate(): RestTemplate</text></g><!--class GraphProperties--><g class="entity" data-entity="GraphProperties" data-source-line="6" data-uid="ent0004" id="entity_GraphProperties"><rect fill="#F1F1F1" height="178.375" rx="2.5" ry="2.5" style="stroke:#181818;stroke-width:0.5;" width="327.3076" x="293.35" y="303.08"/><ellipse cx="395.6293" cy="319.08" fill="#ADD1B2" rx="11" ry="11" style="stroke:#181818;stroke-width:1;"/><path d="M398.598,324.7206 Q398.0199,325.0175 397.3793,325.1581 Q396.7387,325.3144 396.0355,325.3144 Q393.5355,325.3144 392.2074,323.6738 Q390.8949,322.0175 390.8949,318.8925 Q390.8949,315.7675 392.2074,314.1113 Q393.5355,312.455 396.0355,312.455 Q396.7387,312.455 397.3793,312.6113 Q398.0355,312.7675 398.598,313.0644 L398.598,315.7831 Q397.973,315.205 397.3793,314.9394 Q396.7855,314.6581 396.1605,314.6581 Q394.8168,314.6581 394.1293,315.7363 Q393.4418,316.7988 393.4418,318.8925 Q393.4418,320.9863 394.1293,322.0644 Q394.8168,323.1269 396.1605,323.1269 Q396.7855,323.1269 397.3793,322.8613 Q397.973,322.58 398.598,322.0019 L398.598,324.7206 Z " fill="#000000"/><text fill="#000000" font-family="sans-serif" font-size="14" lengthAdjust="spacing" textLength="114.249" x="416.1293" y="323.9267">GraphProperties</text><line style="stroke:#181818;stroke-width:0.5;" x1="294.35" x2="619.6576" y1="335.08" y2="335.08"/><ellipse cx="304.35" cy="348.7284" fill="none" rx="3" ry="3" style="stroke:#038048;stroke-width:1;"/><text fill="#000000" font-family="sans-serif" font-size="14" lengthAdjust="spacing" textLength="102.416" x="313.35" y="352.0751">clientId: String</text><ellipse cx="304.35" cy="365.0253" fill="none" rx="3" ry="3" style="stroke:#038048;stroke-width:1;"/><text fill="#000000" font-family="sans-serif" font-size="14" lengthAdjust="spacing" textLength="134.4561" x="313.35" y="368.372">clientSecret: String</text><ellipse cx="304.35" cy="381.3222" fill="none" rx="3" ry="3" style="stroke:#038048;stroke-width:1;"/><text fill="#000000" font-family="sans-serif" font-size="14" lengthAdjust="spacing" textLength="109.8809" x="313.35" y="384.6689">tenantId: String</text><ellipse cx="304.35" cy="397.6191" fill="none" rx="3" ry="3" style="stroke:#038048;stroke-width:1;"/><text fill="#000000" font-family="sans-serif" font-size="14" lengthAdjust="spacing" textLength="125.542" x="313.35" y="400.9657">redirectUri: String</text><ellipse cx="304.35" cy="413.9159" fill="none" rx="3" ry="3" style="stroke:#038048;stroke-width:1;"/><text fill="#000000" font-family="sans-serif" font-size="14" lengthAdjust="spacing" textLength="92.0049" x="313.35" y="417.2626">scope: String</text><ellipse cx="304.35" cy="430.2128" fill="none" rx="3" ry="3" style="stroke:#038048;stroke-width:1;"/><text fill="#000000" font-family="sans-serif" font-size="14" lengthAdjust="spacing" textLength="164.8828" x="313.35" y="433.5595">tokenBufferMinutes: int</text><ellipse cx="304.35" cy="446.5097" fill="none" rx="3" ry="3" style="stroke:#038048;stroke-width:1;"/><text fill="#000000" font-family="sans-serif" font-size="14" lengthAdjust="spacing" textLength="154.9023" x="313.35" y="449.8564">refreshTokenDays: int</text><line style="stroke:#181818;stroke-width:0.5;" x1="294.35" x2="619.6576" y1="457.1581" y2="457.1581"/><text fill="#000000" font-family="sans-serif" font-size="14" lengthAdjust="spacing" textLength="315.3076" x="299.35" y="474.1532">@ConfigurationProperties("microsoft.graph")</text></g><!--class TeamsController--><g class="entity" data-entity="TeamsController" data-source-line="19" data-uid="ent0006" id="entity_TeamsController"><rect fill="#F1F1F1" height="80.5938" rx="2.5" ry="2.5" style="stroke:#181818;stroke-width:0.5;" width="241.7832" x="160.11" y="864.05"/><ellipse cx="218.8273" cy="880.05" fill="#ADD1B2" rx="11" ry="11" style="stroke:#181818;stroke-width:1;"/><path d="M221.796,885.6906 Q221.2179,885.9875 220.5773,886.1281 Q219.9367,886.2844 219.2335,886.2844 Q216.7335,886.2844 215.4054,884.6438 Q214.0929,882.9875 214.0929,879.8625 Q214.0929,876.7375 215.4054,875.0813 Q216.7335,873.425 219.2335,873.425 Q219.9367,873.425 220.5773,873.5813 Q221.2335,873.7375 221.796,874.0344 L221.796,876.7531 Q221.171,876.175 220.5773,875.9094 Q219.9835,875.6281 219.3585,875.6281 Q218.0148,875.6281 217.3273,876.7063 Q216.6398,877.7688 216.6398,879.8625 Q216.6398,881.9563 217.3273,883.0344 Q218.0148,884.0969 219.3585,884.0969 Q219.9835,884.0969 220.5773,883.8313 Q221.171,883.55 221.796,882.9719 L221.796,885.6906 Z " fill="#000000"/><text fill="#000000" font-family="sans-serif" font-size="14" lengthAdjust="spacing" textLength="115.8486" x="239.3273" y="884.8967">TeamsController</text><line style="stroke:#181818;stroke-width:0.5;" x1="161.11" x2="400.8932" y1="896.05" y2="896.05"/><text fill="#000000" font-family="sans-serif" font-size="14" lengthAdjust="spacing" textLength="114.2969" x="166.11" y="913.0451">@RestController</text><line style="stroke:#181818;stroke-width:0.5;" x1="161.11" x2="400.8932" y1="920.3469" y2="920.3469"/><text fill="#000000" font-family="sans-serif" font-size="14" lengthAdjust="spacing" textLength="229.7832" x="166.11" y="937.342">@RequestMapping("/api/teams")</text></g><!--class MicrosoftGraphTokenManager--><g class="entity" data-entity="MicrosoftGraphTokenManager" data-source-line="24" data-uid="ent0007" id="entity_MicrosoftGraphTokenManager"><rect fill="#F1F1F1" height="80.5938" rx="2.5" ry="2.5" style="stroke:#181818;stroke-width:0.5;" width="243.2852" x="320.36" y="706.45"/><ellipse cx="335.36" cy="722.45" fill="#ADD1B2" rx="11" ry="11" style="stroke:#181818;stroke-width:1;"/><path d="M338.3288,728.0906 Q337.7506,728.3875 337.11,728.5281 Q336.4694,728.6844 335.7663,728.6844 Q333.2663,728.6844 331.9381,727.0437 Q330.6256,725.3875 330.6256,722.2625 Q330.6256,719.1375 331.9381,717.4812 Q333.2663,715.825 335.7663,715.825 Q336.4694,715.825 337.11,715.9812 Q337.7663,716.1375 338.3288,716.4344 L338.3288,719.1531 Q337.7038,718.575 337.11,718.3094 Q336.5163,718.0281 335.8913,718.0281 Q334.5475,718.0281 333.86,719.1062 Q333.1725,720.1687 333.1725,722.2625 Q333.1725,724.3562 333.86,725.4344 Q334.5475,726.4969 335.8913,726.4969 Q336.5163,726.4969 337.11,726.2312 Q337.7038,725.95 338.3288,725.3719 L338.3288,728.0906 Z " fill="#000000"/><text fill="#000000" font-family="sans-serif" font-size="14" lengthAdjust="spacing" textLength="211.2852" x="349.36" y="727.2967">MicrosoftGraphTokenManager</text><line style="stroke:#181818;stroke-width:0.5;" x1="321.36" x2="562.6452" y1="738.45" y2="738.45"/><text fill="#000000" font-family="sans-serif" font-size="14" lengthAdjust="spacing" textLength="65.7412" x="326.36" y="755.4451">@Service</text><text fill="#000000" font-family="sans-serif" font-size="14" lengthAdjust="spacing" textLength="190.8936" x="326.36" y="771.742">@RequiredArgsConstructor</text><line style="stroke:#181818;stroke-width:0.5;" x1="321.36" x2="562.6452" y1="779.0437" y2="779.0437"/></g><!--class TeamsGraphClient--><g class="entity" data-entity="TeamsGraphClient" data-source-line="29" data-uid="ent0008" id="entity_TeamsGraphClient"><rect fill="#F1F1F1" height="80.5938" rx="2.5" ry="2.5" style="stroke:#181818;stroke-width:0.5;" width="202.8936" x="82.55" y="706.45"/><ellipse cx="115.8849" cy="722.45" fill="#ADD1B2" rx="11" ry="11" style="stroke:#181818;stroke-width:1;"/><path d="M118.8536,728.0906 Q118.2755,728.3875 117.6349,728.5281 Q116.9942,728.6844 116.2911,728.6844 Q113.7911,728.6844 112.463,727.0437 Q111.1505,725.3875 111.1505,722.2625 Q111.1505,719.1375 112.463,717.4812 Q113.7911,715.825 116.2911,715.825 Q116.9942,715.825 117.6349,715.9812 Q118.2911,716.1375 118.8536,716.4344 L118.8536,719.1531 Q118.2286,718.575 117.6349,718.3094 Q117.0411,718.0281 116.4161,718.0281 Q115.0724,718.0281 114.3849,719.1062 Q113.6974,720.1687 113.6974,722.2625 Q113.6974,724.3562 114.3849,725.4344 Q115.0724,726.4969 116.4161,726.4969 Q117.0411,726.4969 117.6349,726.2312 Q118.2286,725.95 118.8536,725.3719 L118.8536,728.0906 Z " fill="#000000"/><text fill="#000000" font-family="sans-serif" font-size="14" lengthAdjust="spacing" textLength="130.1494" x="133.9593" y="727.2967">TeamsGraphClient</text><line style="stroke:#181818;stroke-width:0.5;" x1="83.55" x2="284.4436" y1="738.45" y2="738.45"/><text fill="#000000" font-family="sans-serif" font-size="14" lengthAdjust="spacing" textLength="95.2793" x="88.55" y="755.4451">@Component</text><text fill="#000000" font-family="sans-serif" font-size="14" lengthAdjust="spacing" textLength="190.8936" x="88.55" y="771.742">@RequiredArgsConstructor</text><line style="stroke:#181818;stroke-width:0.5;" x1="83.55" x2="284.4436" y1="779.0437" y2="779.0437"/></g><!--class ApplicationYml--><g class="entity" data-entity="ApplicationYml" data-source-line="36" data-uid="ent0010" id="entity_ApplicationYml"><rect fill="#F1F1F1" height="162.0781" rx="2.5" ry="2.5" style="stroke:#181818;stroke-width:0.5;" width="452.0088" x="231" y="41"/><ellipse cx="400.603" cy="57" fill="#ADD1B2" rx="11" ry="11" style="stroke:#181818;stroke-width:1;"/><path d="M403.5718,62.6406 Q402.9937,62.9375 402.353,63.0781 Q401.7124,63.2344 401.0093,63.2344 Q398.5093,63.2344 397.1812,61.5938 Q395.8687,59.9375 395.8687,56.8125 Q395.8687,53.6875 397.1812,52.0313 Q398.5093,50.375 401.0093,50.375 Q401.7124,50.375 402.353,50.5313 Q403.0093,50.6875 403.5718,50.9844 L403.5718,53.7031 Q402.9468,53.125 402.353,52.8594 Q401.7593,52.5781 401.1343,52.5781 Q399.7905,52.5781 399.103,53.6563 Q398.4155,54.7188 398.4155,56.8125 Q398.4155,58.9063 399.103,59.9844 Q399.7905,61.0469 401.1343,61.0469 Q401.7593,61.0469 402.353,60.7813 Q402.9468,60.5 403.5718,59.9219 L403.5718,62.6406 Z " fill="#000000"/><text fill="#000000" font-family="sans-serif" font-size="14" lengthAdjust="spacing" textLength="104.3027" x="421.103" y="61.8467">ApplicationYml</text><line style="stroke:#181818;stroke-width:0.5;" x1="232" x2="682.0088" y1="73" y2="73"/><text fill="#000000" font-family="sans-serif" font-size="14" lengthAdjust="spacing" textLength="369.5986" x="237" y="89.9951">microsoft.graph.client-id: ${MICROSOFT_CLIENT_ID}</text><text fill="#000000" font-family="sans-serif" font-size="14" lengthAdjust="spacing" textLength="440.0088" x="237" y="106.292">microsoft.graph.client-secret: ${MICROSOFT_CLIENT_SECRET}</text><text fill="#000000" font-family="sans-serif" font-size="14" lengthAdjust="spacing" textLength="383.9609" x="237" y="122.5889">microsoft.graph.tenant-id: ${MICROSOFT_TENANT_ID}</text><text fill="#000000" font-family="sans-serif" font-size="14" lengthAdjust="spacing" textLength="421.5928" x="237" y="138.8857">microsoft.graph.redirect-uri: ${MICROSOFT_REDIRECT_URI}</text><text fill="#000000" font-family="sans-serif" font-size="14" lengthAdjust="spacing" textLength="379.3398" x="237" y="155.1826">microsoft.graph.scope: "User.Read Chat.ReadWrite..."</text><text fill="#000000" font-family="sans-serif" font-size="14" lengthAdjust="spacing" textLength="282.1875" x="237" y="171.4795">microsoft.graph.token-buffer-minutes: 5</text><text fill="#000000" font-family="sans-serif" font-size="14" lengthAdjust="spacing" textLength="275.3174" x="237" y="187.7764">microsoft.graph.refresh-token-days: 90</text><line style="stroke:#181818;stroke-width:0.5;" x1="232" x2="682.0088" y1="195.0781" y2="195.0781"/></g><!--class RestTemplate--><g class="entity" data-entity="RestTemplate" data-source-line="48" data-uid="ent0011" id="entity_RestTemplate"><rect fill="#F1F1F1" height="48" rx="2.5" ry="2.5" style="stroke:#181818;stroke-width:0.5;" width="129.3848" x="119.31" y="560.45"/><ellipse cx="134.31" cy="576.45" fill="#ADD1B2" rx="11" ry="11" style="stroke:#181818;stroke-width:1;"/><path d="M137.2788,582.0906 Q136.7006,582.3875 136.06,582.5281 Q135.4194,582.6844 134.7163,582.6844 Q132.2163,582.6844 130.8881,581.0437 Q129.5756,579.3875 129.5756,576.2625 Q129.5756,573.1375 130.8881,571.4812 Q132.2163,569.825 134.7163,569.825 Q135.4194,569.825 136.06,569.9812 Q136.7163,570.1375 137.2788,570.4344 L137.2788,573.1531 Q136.6538,572.575 136.06,572.3094 Q135.4663,572.0281 134.8413,572.0281 Q133.4975,572.0281 132.81,573.1062 Q132.1225,574.1687 132.1225,576.2625 Q132.1225,578.3562 132.81,579.4344 Q133.4975,580.4969 134.8413,580.4969 Q135.4663,580.4969 136.06,580.2312 Q136.6538,579.95 137.2788,579.3719 L137.2788,582.0906 Z " fill="#000000"/><text fill="#000000" font-family="sans-serif" font-size="14" lengthAdjust="spacing" textLength="97.3848" x="148.31" y="581.2967">RestTemplate</text><line style="stroke:#181818;stroke-width:0.5;" x1="120.31" x2="247.6948" y1="592.45" y2="592.45"/><line style="stroke:#181818;stroke-width:0.5;" x1="120.31" x2="247.6948" y1="600.45" y2="600.45"/></g><!--link MicrosoftGraphConfig to RestTemplate--><g class="link" data-entity-1="MicrosoftGraphConfig" data-entity-2="RestTemplate" data-source-line="48" data-uid="lnk12" id="link_MicrosoftGraphConfig_RestTemplate"><path codeLine="48" d="M147.27,424.67 C156.08,462.76 169.3781,520.2243 177.2481,554.2543" fill="none" id="MicrosoftGraphConfig-to-RestTemplate" style="stroke:#181818;stroke-width:1;"/><polygon fill="#181818" points="178.6,560.1,180.4693,550.4302,177.4734,555.2286,172.675,552.2327,178.6,560.1" style="stroke:#181818;stroke-width:1;"/><text fill="#000000" font-family="sans-serif" font-size="13" lengthAdjust="spacing" textLength="48.3247" x="172" y="526.5169">creates</text></g><!--link ApplicationYml to GraphProperties--><g class="link" data-entity-1="ApplicationYml" data-entity-2="GraphProperties" data-source-line="49" data-uid="lnk13" id="link_ApplicationYml_GraphProperties"><path codeLine="49" d="M457,203.52 C457,234.84 457,264.84 457,296.88" fill="none" id="ApplicationYml-to-GraphProperties" style="stroke:#181818;stroke-width:1;"/><polygon fill="#181818" points="457,302.88,461,293.88,457,297.88,453,293.88,457,302.88" style="stroke:#181818;stroke-width:1;"/><text fill="#000000" font-family="sans-serif" font-size="13" lengthAdjust="spacing" textLength="64.1431" x="458" y="248.1469">populates</text></g><!--link GraphProperties to MicrosoftGraphTokenManager--><g class="link" data-entity-1="GraphProperties" data-entity-2="MicrosoftGraphTokenManager" data-source-line="50" data-uid="lnk14" id="link_GraphProperties_MicrosoftGraphTokenManager"><path codeLine="50" d="M453.23,481.76 C450.17,553.74 446.2451,645.9654 443.9451,700.0154" fill="none" id="GraphProperties-to-MicrosoftGraphTokenManager" style="stroke:#181818;stroke-width:1;"/><polygon fill="#181818" points="443.69,706.01,448.069,697.1882,443.9026,701.0145,440.0762,696.8481,443.69,706.01" style="stroke:#181818;stroke-width:1;"/><text fill="#000000" font-family="sans-serif" font-size="13" lengthAdjust="spacing" textLength="51.9556" x="450" y="589.0169">injected</text></g><!--link RestTemplate to MicrosoftGraphTokenManager--><g class="link" data-entity-1="RestTemplate" data-entity-2="MicrosoftGraphTokenManager" data-source-line="51" data-uid="lnk15" id="link_RestTemplate_MicrosoftGraphTokenManager"><path codeLine="51" d="M221.79,608.93 C262.8,634.41 323.8932,672.3742 373.0132,702.8842" fill="none" id="RestTemplate-to-MicrosoftGraphTokenManager" style="stroke:#181818;stroke-width:1;"/><polygon fill="#181818" points="378.11,706.05,372.5753,697.9034,373.8626,703.4118,368.3542,704.6992,378.11,706.05" style="stroke:#181818;stroke-width:1;"/><text fill="#000000" font-family="sans-serif" font-size="13" lengthAdjust="spacing" textLength="51.9556" x="291" y="651.5169">injected</text></g><!--link RestTemplate to TeamsGraphClient--><g class="link" data-entity-1="RestTemplate" data-entity-2="TeamsGraphClient" data-source-line="52" data-uid="lnk16" id="link_RestTemplate_TeamsGraphClient"><path codeLine="52" d="M184,608.76 C184,634.2 184,669.39 184,699.97" fill="none" id="RestTemplate-to-TeamsGraphClient" style="stroke:#181818;stroke-width:1;"/><polygon fill="#181818" points="184,705.97,188,696.97,184,700.97,180,696.97,184,705.97" style="stroke:#181818;stroke-width:1;"/><text fill="#000000" font-family="sans-serif" font-size="13" lengthAdjust="spacing" textLength="51.9556" x="185" y="651.5169">injected</text></g><!--link MicrosoftGraphTokenManager to TeamsController--><g class="link" data-entity-1="MicrosoftGraphTokenManager" data-entity-2="TeamsController" data-source-line="53" data-uid="lnk17" id="link_MicrosoftGraphTokenManager_TeamsController"><path codeLine="53" d="M400.96,787.41 C376.73,810.82 350.4942,836.1801 326.2842,859.5801" fill="none" id="MicrosoftGraphTokenManager-to-TeamsController" style="stroke:#181818;stroke-width:1;"/><polygon fill="#181818" points="321.97,863.75,331.2212,860.3713,325.5652,860.2751,325.6614,854.6191,321.97,863.75" style="stroke:#181818;stroke-width:1;"/><text fill="#000000" font-family="sans-serif" font-size="13" lengthAdjust="spacing" textLength="51.9556" x="367" y="830.1169">injected</text></g><!--link TeamsGraphClient to TeamsController--><g class="link" data-entity-1="TeamsGraphClient" data-entity-2="TeamsController" data-source-line="54" data-uid="lnk18" id="link_TeamsGraphClient_TeamsController"><path codeLine="54" d="M208.73,787.41 C223.32,810.82 238.5555,835.2586 253.1455,858.6586" fill="none" id="TeamsGraphClient-to-TeamsController" style="stroke:#181818;stroke-width:1;"/><polygon fill="#181818" points="256.32,863.75,254.9525,853.9965,253.6746,859.5072,248.164,858.2292,256.32,863.75" style="stroke:#181818;stroke-width:1;"/><text fill="#000000" font-family="sans-serif" font-size="13" lengthAdjust="spacing" textLength="51.9556" x="237" y="830.1169">injected</text></g><!--SRC=[fLJ1ZjCm4BtdAwm8YQvGibmuq0EYf055ehieIOKuLSQPjcOJnumTn6hLVyTsM-eqQHU97AgayzwRySmRIyeUw0P8M4ZaOaEILgpvfaEgUIj2yXGGyx2QAaKMd66hshN-X5Hkzy03m3wl28BI9JIofXecDrEIUzyEjdE_dgHJ-eAj1DGSbAVslbV82J89csCPySQomnkl0bPp43ghfgJGzZY3K04CGO-4DGXwWObGSGIcbyX7eegPqiO4smSG7xhr6d31HQT1JGaNkgUxDXtRbXOufuzUV1ViWa0E9jF8LfWpgFvOIg2DCjtIsDOreDz3Eu1JnF__PsT22ogbKPw4jrJoMsrr3jqS3Ae_UrVoWWfJNYzV0VYBC-WdChshPhYn9IgD7TCjZkTm1zbxoysgxuR3uVzLsszW-bi32bfVC_TCofep5_ZMr5xgCxl5Unz5t3ZbnTCYI_BxulvZkKe-P-bTkShck-UOwc314NQH9dbQNbROctIGkqplPi_aFdeuwgo9VNAUphCyJShLCiykymyk3vSACCw1LYJPKktUlYBN4CTnUBbiQvVekzk5g3akmvihnRh5YFQyogt6szUdmRuaSv0WAX3iaMJYXpcN6LimUZz5qRlUFKIcnBJVlAZWREGMUNuVJObiPLSx-7dCug-iXTrcMnbKGI__Vz062-A1hqZ-fNgNXCSSg5x7_m40]--></g></svg>