<svg xmlns="http://www.w3.org/2000/svg" xmlns:xlink="http://www.w3.org/1999/xlink" contentStyleType="text/css" data-diagram-type="SEQUENCE" height="836px" preserveAspectRatio="none" style="width:933px;height:836px;background:#FFFFFF;" version="1.1" viewBox="0 0 933 836" width="933px" zoomAndPan="magnify"><defs/><g><g><title>Thread A</title><rect fill="#000000" fill-opacity="0.00000" height="764.9219" width="8" x="39.6436" y="36.2969"/><line style="stroke:#181818;stroke-width:0.5;stroke-dasharray:5.0,5.0;" x1="43" x2="43" y1="36.2969" y2="801.2188"/></g><g><title>Thread B</title><rect fill="#000000" fill-opacity="0.00000" height="764.9219" width="8" x="188.3599" y="36.2969"/><line style="stroke:#181818;stroke-width:0.5;stroke-dasharray:5.0,5.0;" x1="191.7026" x2="191.7026" y1="36.2969" y2="801.2188"/></g><g><title>TokenManager</title><rect fill="#000000" fill-opacity="0.00000" height="764.9219" width="8" x="397.832" y="36.2969"/><line style="stroke:#181818;stroke-width:0.5;stroke-dasharray:5.0,5.0;" x1="401.7935" x2="401.7935" y1="36.2969" y2="801.2188"/></g><g><title>ReentrantLock</title><rect fill="#000000" fill-opacity="0.00000" height="764.9219" width="8" x="524.9624" y="36.2969"/><line style="stroke:#181818;stroke-width:0.5;stroke-dasharray:5.0,5.0;" x1="528.8706" x2="528.8706" y1="36.2969" y2="801.2188"/></g><g><title>Volatile Fields</title><rect fill="#000000" fill-opacity="0.00000" height="764.9219" width="8" x="648.8389" y="36.2969"/><line style="stroke:#181818;stroke-width:0.5;stroke-dasharray:5.0,5.0;" x1="652.0542" x2="652.0542" y1="36.2969" y2="801.2188"/></g><g class="participant participant-head" data-participant="TA"><rect fill="#E2E2F0" height="30.2969" rx="2.5" ry="2.5" style="stroke:#181818;stroke-width:0.5;" width="77.2871" x="5" y="5"/><text fill="#000000" font-family="sans-serif" font-size="14" lengthAdjust="spacing" textLength="63.2871" x="12" y="24.9951">Thread A</text></g><g class="participant participant-tail" data-participant="TA"><rect fill="#E2E2F0" height="30.2969" rx="2.5" ry="2.5" style="stroke:#181818;stroke-width:0.5;" width="77.2871" x="5" y="800.2188"/><text fill="#000000" font-family="sans-serif" font-size="14" lengthAdjust="spacing" textLength="63.2871" x="12" y="820.2139">Thread A</text></g><g class="participant participant-head" data-participant="TB"><rect fill="#E2E2F0" height="30.2969" rx="2.5" ry="2.5" style="stroke:#181818;stroke-width:0.5;" width="77.3145" x="153.7026" y="5"/><text fill="#000000" font-family="sans-serif" font-size="14" lengthAdjust="spacing" textLength="63.3145" x="160.7026" y="24.9951">Thread B</text></g><g class="participant participant-tail" data-participant="TB"><rect fill="#E2E2F0" height="30.2969" rx="2.5" ry="2.5" style="stroke:#181818;stroke-width:0.5;" width="77.3145" x="153.7026" y="800.2188"/><text fill="#000000" font-family="sans-serif" font-size="14" lengthAdjust="spacing" textLength="63.3145" x="160.7026" y="820.2139">Thread B</text></g><g class="participant participant-head" data-participant="TM"><rect fill="#E2E2F0" height="30.2969" rx="2.5" ry="2.5" style="stroke:#181818;stroke-width:0.5;" width="118.0771" x="342.7935" y="5"/><text fill="#000000" font-family="sans-serif" font-size="14" lengthAdjust="spacing" textLength="104.0771" x="349.7935" y="24.9951">TokenManager</text></g><g class="participant participant-tail" data-participant="TM"><rect fill="#E2E2F0" height="30.2969" rx="2.5" ry="2.5" style="stroke:#181818;stroke-width:0.5;" width="118.0771" x="342.7935" y="800.2188"/><text fill="#000000" font-family="sans-serif" font-size="14" lengthAdjust="spacing" textLength="104.0771" x="349.7935" y="820.2139">TokenManager</text></g><g class="participant participant-head" data-participant="Lock"><rect fill="#E2E2F0" height="30.2969" rx="2.5" ry="2.5" style="stroke:#181818;stroke-width:0.5;" width="116.1836" x="470.8706" y="5"/><text fill="#000000" font-family="sans-serif" font-size="14" lengthAdjust="spacing" textLength="102.1836" x="477.8706" y="24.9951">ReentrantLock</text></g><g class="participant participant-tail" data-participant="Lock"><rect fill="#E2E2F0" height="30.2969" rx="2.5" ry="2.5" style="stroke:#181818;stroke-width:0.5;" width="116.1836" x="470.8706" y="800.2188"/><text fill="#000000" font-family="sans-serif" font-size="14" lengthAdjust="spacing" textLength="102.1836" x="477.8706" y="820.2139">ReentrantLock</text></g><g class="participant participant-head" data-participant="VF"><rect fill="#E2E2F0" height="30.2969" rx="2.5" ry="2.5" style="stroke:#181818;stroke-width:0.5;" width="111.5693" x="597.0542" y="5"/><text fill="#000000" font-family="sans-serif" font-size="14" lengthAdjust="spacing" textLength="97.5693" x="604.0542" y="24.9951">Volatile Fields</text></g><g class="participant participant-tail" data-participant="VF"><rect fill="#E2E2F0" height="30.2969" rx="2.5" ry="2.5" style="stroke:#181818;stroke-width:0.5;" width="111.5693" x="597.0542" y="800.2188"/><text fill="#000000" font-family="sans-serif" font-size="14" lengthAdjust="spacing" textLength="97.5693" x="604.0542" y="820.2139">Volatile Fields</text></g><rect fill="#EEEEEE" height="3" style="stroke:#EEEEEE;stroke-width:1;" width="926.5903" x="0" y="66.8633"/><line style="stroke:#000000;stroke-width:1;" x1="0" x2="926.5903" y1="66.8633" y2="66.8633"/><line style="stroke:#000000;stroke-width:1;" x1="0" x2="926.5903" y1="69.8633" y2="69.8633"/><rect fill="#EEEEEE" height="23.1328" style="stroke:#000000;stroke-width:2;" width="190.9282" x="367.8311" y="56.2969"/><text fill="#000000" font-family="sans-serif" font-size="13" font-weight="bold" lengthAdjust="spacing" textLength="172.4023" x="373.8311" y="72.3638">Fast Path (Token Valid)</text><g class="message" data-participant-1="TA" data-participant-2="VF"><polygon fill="#181818" points="640.8389,106.5625,650.8389,110.5625,640.8389,114.5625,644.8389,110.5625" style="stroke:#181818;stroke-width:1;"/><line style="stroke:#181818;stroke-width:1;" x1="43.6436" x2="646.8389" y1="110.5625" y2="110.5625"/><text fill="#000000" font-family="sans-serif" font-size="13" lengthAdjust="spacing" textLength="200.5986" x="50.6436" y="105.4966">read delegatedToken (volatile)</text></g><g class="message" data-participant-1="TA" data-participant-2="VF"><polygon fill="#181818" points="640.8389,135.6953,650.8389,139.6953,640.8389,143.6953,644.8389,139.6953" style="stroke:#181818;stroke-width:1;"/><line style="stroke:#181818;stroke-width:1;" x1="43.6436" x2="646.8389" y1="139.6953" y2="139.6953"/><text fill="#000000" font-family="sans-serif" font-size="13" lengthAdjust="spacing" textLength="173.1387" x="50.6436" y="134.6294">read tokenExpiry (volatile)</text></g><g class="message" data-participant-1="TA" data-participant-2="TA"><line style="stroke:#181818;stroke-width:1;" x1="43.6436" x2="85.6436" y1="168.8281" y2="168.8281"/><line style="stroke:#181818;stroke-width:1;" x1="85.6436" x2="85.6436" y1="168.8281" y2="181.8281"/><line style="stroke:#181818;stroke-width:1;" x1="44.6436" x2="85.6436" y1="181.8281" y2="181.8281"/><polygon fill="#181818" points="54.6436,177.8281,44.6436,181.8281,54.6436,185.8281,50.6436,181.8281" style="stroke:#181818;stroke-width:1;"/><text fill="#000000" font-family="sans-serif" font-size="13" lengthAdjust="spacing" textLength="134.7163" x="50.6436" y="163.7622">isTokenValid() check</text></g><path d="M196.7163,156.1953 L196.7163,181.1953 L414.7163,181.1953 L414.7163,166.1953 L404.7163,156.1953 L196.7163,156.1953" fill="#FEFFDD" style="stroke:#181818;stroke-width:0.5;"/><path d="M404.7163,156.1953 L404.7163,166.1953 L414.7163,166.1953 L404.7163,156.1953" fill="#FEFFDD" style="stroke:#181818;stroke-width:0.5;"/><text fill="#000000" font-family="sans-serif" font-size="13" lengthAdjust="spacing" textLength="197.1963" x="202.7163" y="173.2622">No lock needed, volatile reads</text><g class="message" data-participant-1="TB" data-participant-2="VF"><polygon fill="#181818" points="640.8389,206.9609,650.8389,210.9609,640.8389,214.9609,644.8389,210.9609" style="stroke:#181818;stroke-width:1;"/><line style="stroke:#181818;stroke-width:1;" x1="192.3599" x2="646.8389" y1="210.9609" y2="210.9609"/><text fill="#000000" font-family="sans-serif" font-size="13" lengthAdjust="spacing" textLength="200.5986" x="199.3599" y="205.895">read delegatedToken (volatile)</text></g><g class="message" data-participant-1="TB" data-participant-2="VF"><polygon fill="#181818" points="640.8389,236.0938,650.8389,240.0938,640.8389,244.0938,644.8389,240.0938" style="stroke:#181818;stroke-width:1;"/><line style="stroke:#181818;stroke-width:1;" x1="192.3599" x2="646.8389" y1="240.0938" y2="240.0938"/><text fill="#000000" font-family="sans-serif" font-size="13" lengthAdjust="spacing" textLength="173.1387" x="199.3599" y="235.0278">read tokenExpiry (volatile)</text></g><g class="message" data-participant-1="TB" data-participant-2="TB"><line style="stroke:#181818;stroke-width:1;" x1="192.3599" x2="234.3599" y1="269.2266" y2="269.2266"/><line style="stroke:#181818;stroke-width:1;" x1="234.3599" x2="234.3599" y1="269.2266" y2="282.2266"/><line style="stroke:#181818;stroke-width:1;" x1="193.3599" x2="234.3599" y1="282.2266" y2="282.2266"/><polygon fill="#181818" points="203.3599,278.2266,193.3599,282.2266,203.3599,286.2266,199.3599,282.2266" style="stroke:#181818;stroke-width:1;"/><text fill="#000000" font-family="sans-serif" font-size="13" lengthAdjust="spacing" textLength="134.7163" x="199.3599" y="264.1606">isTokenValid() check</text></g><path d="M345.7163,256.5938 L345.7163,281.5938 L562.7163,281.5938 L562.7163,266.5938 L552.7163,256.5938 L345.7163,256.5938" fill="#FEFFDD" style="stroke:#181818;stroke-width:0.5;"/><path d="M552.7163,256.5938 L552.7163,266.5938 L562.7163,266.5938 L552.7163,256.5938" fill="#FEFFDD" style="stroke:#181818;stroke-width:0.5;"/><text fill="#000000" font-family="sans-serif" font-size="13" lengthAdjust="spacing" textLength="196.333" x="351.7163" y="273.6606">Concurrent reads, no blocking</text><rect fill="#EEEEEE" height="3" style="stroke:#EEEEEE;stroke-width:1;" width="926.5903" x="0" y="310.793"/><line style="stroke:#000000;stroke-width:1;" x1="0" x2="926.5903" y1="310.793" y2="310.793"/><line style="stroke:#000000;stroke-width:1;" x1="0" x2="926.5903" y1="313.793" y2="313.793"/><rect fill="#EEEEEE" height="23.1328" style="stroke:#000000;stroke-width:2;" width="213.7354" x="356.4275" y="300.2266"/><text fill="#000000" font-family="sans-serif" font-size="13" font-weight="bold" lengthAdjust="spacing" textLength="195.2095" x="362.4275" y="316.2935">Slow Path (Token Refresh)</text><g class="message" data-participant-1="TA" data-participant-2="Lock"><polygon fill="#181818" points="516.9624,353.4922,526.9624,357.4922,516.9624,361.4922,520.9624,357.4922" style="stroke:#181818;stroke-width:1;"/><line style="stroke:#181818;stroke-width:1;" x1="43.6436" x2="522.9624" y1="357.4922" y2="357.4922"/><text fill="#000000" font-family="sans-serif" font-size="13" lengthAdjust="spacing" textLength="36.3848" x="50.6436" y="352.4263">lock()</text></g><path d="M533,338.3594 L533,363.3594 L662,363.3594 L662,348.3594 L652,338.3594 L533,338.3594" fill="#FEFFDD" style="stroke:#181818;stroke-width:0.5;"/><path d="M652,338.3594 L652,348.3594 L662,348.3594 L652,338.3594" fill="#FEFFDD" style="stroke:#181818;stroke-width:0.5;"/><text fill="#000000" font-family="sans-serif" font-size="13" lengthAdjust="spacing" textLength="108.9194" x="539" y="355.4263">Exclusive access</text><g class="message" data-participant-1="TA" data-participant-2="TM"><polygon fill="#181818" points="389.832,385.625,399.832,389.625,389.832,393.625,393.832,389.625" style="stroke:#181818;stroke-width:1;"/><line style="stroke:#181818;stroke-width:1;" x1="43.6436" x2="395.832" y1="389.625" y2="389.625"/><text fill="#000000" font-family="sans-serif" font-size="13" lengthAdjust="spacing" textLength="185.4722" x="50.6436" y="384.5591">Double-check isTokenValid()</text></g><g class="message" data-participant-1="TA" data-participant-2="TM"><polygon fill="#181818" points="389.832,414.7578,399.832,418.7578,389.832,422.7578,393.832,418.7578" style="stroke:#181818;stroke-width:1;"/><line style="stroke:#181818;stroke-width:1;" x1="43.6436" x2="395.832" y1="418.7578" y2="418.7578"/><text fill="#000000" font-family="sans-serif" font-size="13" lengthAdjust="spacing" textLength="140.8101" x="50.6436" y="413.6919">refreshAccessToken()</text></g><g class="message" data-participant-1="TA" data-participant-2="VF"><polygon fill="#181818" points="640.8389,446.8906,650.8389,450.8906,640.8389,454.8906,644.8389,450.8906" style="stroke:#181818;stroke-width:1;"/><line style="stroke:#181818;stroke-width:1;" x1="43.6436" x2="646.8389" y1="450.8906" y2="450.8906"/><text fill="#000000" font-family="sans-serif" font-size="13" lengthAdjust="spacing" textLength="173.2275" x="50.6436" y="445.8247">write new tokens (volatile)</text></g><path d="M657,431.7578 L657,456.7578 L892,456.7578 L892,441.7578 L882,431.7578 L657,431.7578" fill="#FEFFDD" style="stroke:#181818;stroke-width:0.5;"/><path d="M882,431.7578 L882,441.7578 L892,441.7578 L882,431.7578" fill="#FEFFDD" style="stroke:#181818;stroke-width:0.5;"/><text fill="#000000" font-family="sans-serif" font-size="13" lengthAdjust="spacing" textLength="214.062" x="663" y="448.8247">Memory barrier ensures visibility</text><g class="message" data-participant-1="TA" data-participant-2="Lock"><polygon fill="#181818" points="516.9624,479.0234,526.9624,483.0234,516.9624,487.0234,520.9624,483.0234" style="stroke:#181818;stroke-width:1;"/><line style="stroke:#181818;stroke-width:1;" x1="43.6436" x2="522.9624" y1="483.0234" y2="483.0234"/><text fill="#000000" font-family="sans-serif" font-size="13" lengthAdjust="spacing" textLength="52.8633" x="50.6436" y="477.9575">unlock()</text></g><g class="message" data-participant-1="TB" data-participant-2="Lock"><polygon fill="#181818" points="516.9624,511.1563,526.9624,515.1563,516.9624,519.1563,520.9624,515.1563" style="stroke:#181818;stroke-width:1;"/><line style="stroke:#181818;stroke-width:1;" x1="192.3599" x2="522.9624" y1="515.1563" y2="515.1563"/><text fill="#000000" font-family="sans-serif" font-size="13" lengthAdjust="spacing" textLength="101.4038" x="199.3599" y="510.0903">lock() (blocked)</text></g><path d="M533,496.0234 L533,521.0234 L675,521.0234 L675,506.0234 L665,496.0234 L533,496.0234" fill="#FEFFDD" style="stroke:#181818;stroke-width:0.5;"/><path d="M665,496.0234 L665,506.0234 L675,506.0234 L665,496.0234" fill="#FEFFDD" style="stroke:#181818;stroke-width:0.5;"/><text fill="#000000" font-family="sans-serif" font-size="13" lengthAdjust="spacing" textLength="121.2085" x="539" y="513.0903">Waits for Thread A</text><g class="message" data-participant-1="TA" data-participant-2="Lock"><polygon fill="#181818" points="516.9624,543.2891,526.9624,547.2891,516.9624,551.2891,520.9624,547.2891" style="stroke:#181818;stroke-width:1;"/><line style="stroke:#181818;stroke-width:1;" x1="43.6436" x2="522.9624" y1="547.2891" y2="547.2891"/><text fill="#000000" font-family="sans-serif" font-size="13" lengthAdjust="spacing" textLength="117.7173" x="50.6436" y="542.2231">unlock() complete</text></g><g class="message" data-participant-1="TB" data-participant-2="Lock"><polygon fill="#181818" points="516.9624,572.4219,526.9624,576.4219,516.9624,580.4219,520.9624,576.4219" style="stroke:#181818;stroke-width:1;"/><line style="stroke:#181818;stroke-width:1;" x1="192.3599" x2="522.9624" y1="576.4219" y2="576.4219"/><text fill="#000000" font-family="sans-serif" font-size="13" lengthAdjust="spacing" textLength="56.8115" x="199.3599" y="571.356">acquired</text></g><g class="message" data-participant-1="TB" data-participant-2="TM"><polygon fill="#181818" points="389.832,604.5547,399.832,608.5547,389.832,612.5547,393.832,608.5547" style="stroke:#181818;stroke-width:1;"/><line style="stroke:#181818;stroke-width:1;" x1="192.3599" x2="395.832" y1="608.5547" y2="608.5547"/><text fill="#000000" font-family="sans-serif" font-size="13" lengthAdjust="spacing" textLength="185.4722" x="199.3599" y="603.4888">Double-check isTokenValid()</text></g><path d="M406,589.4219 L406,614.4219 L605,614.4219 L605,599.4219 L595,589.4219 L406,589.4219" fill="#FEFFDD" style="stroke:#181818;stroke-width:0.5;"/><path d="M595,589.4219 L595,599.4219 L605,599.4219 L595,589.4219" fill="#FEFFDD" style="stroke:#181818;stroke-width:0.5;"/><text fill="#000000" font-family="sans-serif" font-size="13" lengthAdjust="spacing" textLength="178.3882" x="412" y="606.4888">Thread A already refreshed</text><g class="message" data-participant-1="TB" data-participant-2="TM"><polygon fill="#181818" points="389.832,636.6875,399.832,640.6875,389.832,644.6875,393.832,640.6875" style="stroke:#181818;stroke-width:1;"/><line style="stroke:#181818;stroke-width:1;" x1="192.3599" x2="395.832" y1="640.6875" y2="640.6875"/><text fill="#000000" font-family="sans-serif" font-size="13" lengthAdjust="spacing" textLength="136.6206" x="199.3599" y="635.6216">return existing token</text></g><g class="message" data-participant-1="TB" data-participant-2="Lock"><polygon fill="#181818" points="516.9624,665.8203,526.9624,669.8203,516.9624,673.8203,520.9624,669.8203" style="stroke:#181818;stroke-width:1;"/><line style="stroke:#181818;stroke-width:1;" x1="192.3599" x2="522.9624" y1="669.8203" y2="669.8203"/><text fill="#000000" font-family="sans-serif" font-size="13" lengthAdjust="spacing" textLength="52.8633" x="199.3599" y="664.7544">unlock()</text></g><rect fill="#EEEEEE" height="3" style="stroke:#EEEEEE;stroke-width:1;" width="926.5903" x="0" y="698.3867"/><line style="stroke:#000000;stroke-width:1;" x1="0" x2="926.5903" y1="698.3867" y2="698.3867"/><line style="stroke:#000000;stroke-width:1;" x1="0" x2="926.5903" y1="701.3867" y2="701.3867"/><rect fill="#EEEEEE" height="23.1328" style="stroke:#000000;stroke-width:2;" width="146.2407" x="390.1748" y="687.8203"/><text fill="#000000" font-family="sans-serif" font-size="13" font-weight="bold" lengthAdjust="spacing" textLength="127.7148" x="396.1748" y="703.8872">Memory Visibility</text><g class="message" data-participant-1="TA" data-participant-2="VF"><polygon fill="#181818" points="640.8389,741.0859,650.8389,745.0859,640.8389,749.0859,644.8389,745.0859" style="stroke:#181818;stroke-width:1;"/><line style="stroke:#181818;stroke-width:1;" x1="43.6436" x2="646.8389" y1="745.0859" y2="745.0859"/><text fill="#000000" font-family="sans-serif" font-size="13" lengthAdjust="spacing" textLength="84.3604" x="50.6436" y="740.02">volatile write</text></g><path d="M657,725.9531 L657,750.9531 L915,750.9531 L915,735.9531 L905,725.9531 L657,725.9531" fill="#FEFFDD" style="stroke:#181818;stroke-width:0.5;"/><path d="M905,725.9531 L905,735.9531 L915,735.9531 L905,725.9531" fill="#FEFFDD" style="stroke:#181818;stroke-width:0.5;"/><text fill="#000000" font-family="sans-serif" font-size="13" lengthAdjust="spacing" textLength="237.7515" x="663" y="743.02">Creates happens-before relationship</text><g class="message" data-participant-1="TB" data-participant-2="VF"><polygon fill="#181818" points="640.8389,776.2188,650.8389,780.2188,640.8389,784.2188,644.8389,780.2188" style="stroke:#181818;stroke-width:1;"/><line style="stroke:#181818;stroke-width:1;" x1="192.3599" x2="646.8389" y1="780.2188" y2="780.2188"/><text fill="#000000" font-family="sans-serif" font-size="13" lengthAdjust="spacing" textLength="81.2373" x="199.3599" y="775.1528">volatile read</text></g><path d="M657,761.0859 L657,786.0859 L893,786.0859 L893,771.0859 L883,761.0859 L657,761.0859" fill="#FEFFDD" style="stroke:#181818;stroke-width:0.5;"/><path d="M883,761.0859 L883,771.0859 L893,771.0859 L883,761.0859" fill="#FEFFDD" style="stroke:#181818;stroke-width:0.5;"/><text fill="#000000" font-family="sans-serif" font-size="13" lengthAdjust="spacing" textLength="215.6807" x="663" y="778.1528">Sees latest values from Thread A</text><!--SRC=[ZPDDRjim48NtEiKWAnc8Bo300QGsNjL5a0ZkcYB7rY0qgGuf_zo-56MveXkWtb7WqvittmmxmPuaTS9uUAfRHg6WV0BXe2wpxelBQhoixYxj9vgDC6AFF0esgU0TqNWEnnzMVaR5S4WrMwk59usm9jJAHTLsdMMh5Qo5y_0cV0jvB0LReKajOBNAwXAMBq5NGCodKEDUU5IZBZzUJHVtGZ_Slvuxuik_gheiW5oqY9No1SWMGs1ZFGBJllK5_BIWGnDW41MgPvXCeh_BihfwD5drKBAeggi7adspHlRC0VcOvHcCXMO8IsOVWNveUqg0lkEEqRKpfCE0YjXXlaZSNyzIzuwE249AT6vYjYdWk-qRZSkOw2xcJCLZhJB-7JNvV3mdfb3Cu6aauUOGvZasUB01KIEO2Hc2iW-sS2H73MdobwIHtbnRkOASjmTvX8CgBV1Ba7UmimpJo_ZI4QGzT1ez9iv2_kw9KKrp-m-TUTsf6WWz72uJiCICqVTi0C_aV9Zgo2f9yBVZCF0hhEqDJlfsRhiRuQVB53BumBKLNHSOBniCH8Ob7_wmnhNKpJOuUGI9pmS64prOUJWAtOUl7Tl3hTi_]--></g></svg>